HIERARCHY
ROOT RootJoint
{
    OFFSET   0.000000   0.000000   0.000000
    CHANNELS 6 Xposition Yposition Zposition Xrotation Yrotation Zrotation
    JOINT lHip
    {
        OFFSET   0.100000  -0.051395   0.000000
        CHANNELS 3 Xrotation Yrotation Zrotation
        JOINT lKnee
        {
            OFFSET   0.000000  -0.410000   0.000000
            CHANNELS 3 Xrotation Yrotation Zrotation
            JOINT lAnkle
            {
                OFFSET   0.000000  -0.390000   0.000000
                CHANNELS 3 Xrotation Yrotation Zrotation
                JOINT lToeJoint
                {
                    OFFSET   0.000000  -0.050000   0.130000
                    CHANNELS 3 Xrotation Yrotation Zrotation
                    End Site
                    {
                        OFFSET   0.010000   0.002000   0.060000
                    }
                }
            }
        }
    }
    JOINT rHip
    {
        OFFSET  -0.100000  -0.051395   0.000000
        CHANNELS 3 Xrotation Yrotation Zrotation
        JOINT rKnee
        {
            OFFSET   0.000000  -0.410000   0.000000
            CHANNELS 3 Xrotation Yrotation Zrotation
            JOINT rAnkle
            {
                OFFSET   0.000000  -0.390000   0.000000
                CHANNELS 3 Xrotation Yrotation Zrotation
                JOINT rToeJoint
                {
                    OFFSET   0.000000  -0.050000   0.130000
                    CHANNELS 3 Xrotation Yrotation Zrotation
                    End Site
                    {
                        OFFSET  -0.010000   0.002000   0.060000
                    }
                }
            }
        }
    }
    JOINT pelvis_lowerback
    {
        OFFSET   0.000000   0.093605   0.000000
        CHANNELS 3 Xrotation Yrotation Zrotation
        JOINT lowerback_torso
        {
            OFFSET   0.000000   0.100000   0.000000
            CHANNELS 3 Xrotation Yrotation Zrotation
            JOINT torso_head
            {
                OFFSET   0.000000   0.282350   0.000000
                CHANNELS 3 Xrotation Yrotation Zrotation
                End Site
                {
                    OFFSET   0.000000   0.192650   0.000000
                }
            }
            JOINT lTorso_Clavicle
            {
                OFFSET   0.001000   0.157500   0.000000
                CHANNELS 3 Xrotation Yrotation Zrotation
                JOINT lShoulder
                {
                    OFFSET   0.117647   0.000000   0.000000
                    CHANNELS 3 Xrotation Yrotation Zrotation
                    JOINT lElbow
                    {
                        OFFSET   0.245000   0.000000   0.000000
                        CHANNELS 3 Xrotation Yrotation Zrotation
                        JOINT lWrist
                        {
                            OFFSET   0.240000   0.000000   0.000000
                            CHANNELS 3 Xrotation Yrotation Zrotation
                            End Site
                            {
                                OFFSET   0.116353  -0.002500   0.000000
                            }
                        }
                    }
                }
            }
            JOINT rTorso_Clavicle
            {
                OFFSET  -0.001000   0.157500   0.000000
                CHANNELS 3 Xrotation Yrotation Zrotation
                JOINT rShoulder
                {
                    OFFSET  -0.117647   0.000000   0.000000
                    CHANNELS 3 Xrotation Yrotation Zrotation
                    JOINT rElbow
                    {
                        OFFSET  -0.245000   0.000000   0.000000
                        CHANNELS 3 Xrotation Yrotation Zrotation
                        JOINT rWrist
                        {
                            OFFSET  -0.240000   0.000000   0.000000
                            CHANNELS 3 Xrotation Yrotation Zrotation
                            End Site
                            {
                                OFFSET  -0.116353  -0.002500   0.000000
                            }
                        }
                    }
                }
            }
        }
    }
}
MOTION
Frames: 17
Frame Time:   0.010000
  0.000000   0.000000   0.000000   0.000000   0.000000   0.000000   0.000000   0.000000   0.000000   0.000000   0.000000   0.000000   0.000000   0.000000   0.000000   0.000000   0.000000   0.000000   0.000000   0.000000   0.000000   0.000000   0.000000   0.000000   0.000000   0.000000   0.000000   0.000000   0.000000   0.000000   0.000000   0.000000   0.000000   0.000000   0.000000   0.000000   0.000000   0.000000   0.000000   0.000000   0.000000   0.000000   0.000000   0.000000   0.000000   0.000000   0.000000   0.000000   0.000000   0.000000   0.000000   0.000000   0.000000   0.000000   0.000000   0.000000   0.000000   0.000000   0.000000   0.000000   0.000000   0.000000   0.000000
  3.141593   3.141593   3.141593  -3.085680 -40.055839  -4.009851 -32.608344  14.082900   1.484221  44.911358  -0.455074   7.804560  -9.694546  -0.987934  -2.863493  -3.587100  -4.368272  -2.421412 -25.235048 -23.060832  -3.970670  43.845552  -4.818043  -9.838292   5.968969  -1.115677   4.304111  -2.595827  -4.425870  -3.605319  -2.342349  -1.533803  -1.959079  12.221721  -2.575984   2.416835  25.576994  -1.972516   1.561329  -1.807518  -2.827371 -32.132493  15.140811 -45.412437 -65.373770  -0.247170 -52.059005   9.097715   5.577439   3.080630 -13.929617  -6.220742  -3.187223  32.961620  22.946288  41.540439  62.459710  -1.269434  49.063040 -11.127432  12.577930   5.552707  -3.108039
  3.141593   3.141593   3.141593  11.082905 -27.483693   2.225043 -28.313670  25.974224   8.922053  62.108336   1.053504   7.574268   7.217338  -2.001982  -0.731428  -3.963674  -2.909101  -1.938116 -27.480057 -21.476687   3.333494  51.261522  -2.988926 -12.049567   1.545359  -6.540270   2.069624  -2.579076  -3.458444  -5.972976   1.741850  -3.576684  -1.544447  13.991923  -5.731231   4.805331  26.301935 -16.675867   4.775777  -5.532384  -4.661117 -26.758155  29.382213 -47.468985 -46.108383  -4.659208 -46.614585   7.676597  12.356172   7.892183 -13.196566  -7.853959  -8.046354  29.547920  22.894129  38.528744  66.352397  -1.406655  53.141127 -14.669648  11.967005   3.937718  -5.841628
  3.141593   3.141593   3.141593 -26.191362 -77.104233 -21.003032 -24.441982  27.201579   8.200079  55.577131  -1.378130   6.242529  -5.161382  -1.234334  -9.563131  -1.727712  -3.623220  -2.442637 -33.012541 -22.863039   1.004112  41.449798  -6.441650 -10.570041   0.536657  -8.853328   0.164980  -1.435962   0.750495  -2.064833   1.658342  -1.441945  -3.394429  14.384754  -5.759222   2.543911  24.510303 -18.503662   9.433077  -4.117987  -4.802181 -31.851953  21.410042 -47.530358 -60.627637   1.544541 -52.740213   9.349629  15.478093   8.103306 -16.140169  -9.671312  -5.668021  28.536535  21.857648  42.428569  64.491702  -4.276161  49.869824 -10.449179  15.656823   5.966730  -9.370148
  3.141593   3.141593   3.141593  30.214082 -78.210242  30.703749 -33.502193  20.390491   9.719709  55.212392  -2.264234   8.627436  -0.995327  -3.125526 -10.166433  -5.037689  -4.803790  -2.388415 -26.903243 -19.697017   8.676193  42.508378  -3.400926 -10.544469  -6.055848  -3.794635  -3.164895  -4.081596  -1.261155  -4.468719   1.333528  -2.857003  -3.499052  12.694947  -5.635717   4.767536  25.325381 -12.418800   5.329072  -4.555726  -3.878534 -29.956326  13.955286 -46.490185 -66.587176   1.364272 -55.604518  11.947870  14.392178   6.092713 -14.375247  -9.053770  -6.755302  29.138169  26.023333  40.470638  63.361156  -2.665791  48.496410 -12.831433   9.545660   5.411654  -6.592237
  3.141593   3.141593   3.141593   6.081631 -49.035838   4.112606 -39.026034  14.239941   5.701197  50.873155  -3.258962   8.265927  -1.844262  -5.751721  -6.138553  -5.032628  -4.273904  -2.673551 -20.477550 -17.717647   4.741569  47.812262  -3.745604  -9.611582   1.696475  -5.772368  -3.200639  -2.274646   0.435763  -3.912334   1.926103  -1.195703  -3.808933  13.739397  -2.832539   2.960122  23.153443 -12.025532   2.108280  -4.317095  -1.423097 -31.066169  21.346930 -45.070596 -63.029725  -0.512804 -51.646840   9.085567  12.835216   5.389913 -17.478300  -6.856153  -4.435398  28.150824  21.665899  41.228898  64.332095  -3.894364  52.328782 -10.643959  16.630863   5.088427  -5.066396
  3.141593   3.141593   3.141593  12.215884 -73.960346   9.073686 -28.051405  30.457159   6.363503  52.807733   1.590537   6.614075   1.214397   1.607200  -6.284041  -5.167666  -2.154058  -2.857719 -33.642093 -23.994869  -2.624112  47.577763  -2.685176 -10.277346   3.595556  -5.961637   6.041564  -2.234118   0.514070  -4.760837  -0.186214  -3.081167  -3.545778  12.921502  -4.802932   3.666115  25.037258  -9.194927   3.608074  -4.982282  -4.757622 -29.559802  13.293214 -47.384876 -66.888581   2.611358 -57.078324  14.564216  11.718699   3.473107 -10.087604  -8.818576  -3.297814  29.143568  21.300151  42.420937  65.308836  -2.369910  52.303123 -10.121433  14.745121   5.332186  -2.299258
  3.141593   3.141593   3.141593  14.913482 -68.082175  15.188631 -36.503006  18.420044   6.450041  54.186082   0.575052   9.239970   0.213216  -1.817398  -7.269138  -4.816823  -4.745891  -3.726723 -18.930090 -21.010332   2.839066  41.819002  -6.022072 -13.019990   0.955793  -6.207455   2.340920  -2.847491  -0.751011  -5.434372  -0.028471  -3.321372  -2.711632  13.251061  -2.127436   4.377834  26.574929 -13.664763   8.313297  -7.303027  -2.832471 -30.685235  22.907321 -45.657007 -61.583051  -0.168879 -48.732296   8.117929   8.731896   7.528121 -12.490234  -8.696450  -5.670550  28.991839  25.091105  40.921676  63.379397  -2.303466  53.876181 -11.316889  15.892574   6.936649  -7.931840
  3.141593   3.141593   3.141593  11.176684 -41.447002  11.625191 -33.649721  17.306991   4.802387  49.986623  -0.390186   7.162862  -1.138727  -2.218065  -8.617697  -5.220830  -5.401098  -5.416990 -25.912826 -22.973189  -1.864526  48.730029  -4.210973  -9.939008  -3.858896  -3.836526   4.065819  -2.472162  -1.516788  -3.084228   1.250046  -1.353261  -4.648431  15.266317   1.384236   1.003313  16.248609  -5.361613  -0.103951  -5.842749  -0.268016 -30.978209  20.088766 -45.053129 -65.171369  -4.026495 -51.906340   5.265885   5.269984   5.756232  -8.150589  -8.308179  -4.011355  26.969650  23.250409  40.216698  62.950182  -2.991013  48.974961 -13.651718  13.123574   5.847707  -7.578157
  3.141593   3.141593   3.141593   7.134882 -44.632781   5.265720 -37.122586  25.690045   7.207905  48.285759   7.242242   7.645180  -0.023876   3.459598  -3.729607  -3.476917  -4.587295  -2.763079 -23.756738 -24.785646   0.990249  47.700642  -5.773572 -10.224543  -2.908745  -5.559672  -0.935877  -0.632593  -1.779525  -4.507236   0.210209  -1.364351  -3.337306  13.211143   1.639101  -0.431292  24.963726 -10.732816   3.199868  -4.675127   0.798686 -30.621887  20.356325 -44.192436 -65.099278  -1.468676 -46.605596   6.071401   4.738020  12.861890 -13.862779  -8.900754  -3.547169  26.861497  19.689418  42.009449  64.672743  -4.013207  51.492780 -12.262532  17.471151   2.846489  -4.445600
  3.141593   3.141593   3.141593  -7.997882 -61.643988  -9.881323 -35.062838  27.129373   9.713874  54.442244   5.483187   8.209487   3.590687   0.821776  -5.562274  -3.671364  -5.141093  -3.131416 -28.573329 -29.820822  -0.665697  47.197073  -6.957506 -12.285041   3.933231  -7.946650   3.186764  -1.936489   0.003596  -3.259492   1.360321  -1.783985  -1.745417  15.176550  -0.258849   5.054192  27.523998 -10.473249  -0.025816  -5.396810   1.893095 -34.196852  21.550062 -51.658567 -59.029572  -1.631315 -51.888779  11.638101   7.992711   9.287368 -11.521176  -7.406759  -2.384402  32.028831  23.736016  38.579176  66.345228  -4.465271  50.227429 -12.433690   7.717273   1.189118 -10.102519
  3.141593   3.141593   3.141593  -3.109224 -43.373356   6.184322 -26.628359  17.196558   2.496852  42.166266  -2.967223   4.730037   0.537954  -2.012502 -10.045689  -4.730760  -2.212120  -4.602581 -29.635308 -21.194569  -0.421725  50.457710  -6.359795 -12.099209   0.949534  -6.430987  -2.630578   0.218947   0.516378  -3.763410   2.334597  -0.567724  -3.095782  14.841756  -3.301123  -3.271434  24.878285 -25.673235  13.225888  -5.639716  -1.734786 -31.246401  15.936560 -45.232568 -66.293305  -0.736877 -50.127967   8.789507   7.563316   5.764787 -12.718986  -7.360414  -2.945444  29.697111  22.186903  43.083006  62.734207  -4.384324  49.904473 -11.573057  16.362998   6.692542  -9.716415
  3.141593   3.141593   3.141593   2.384036 -23.713393   0.676274 -38.429963  22.875031   6.969001  52.379383   7.417666  11.130477  -3.792278   4.709058  -2.540635  -4.524253  -4.720534  -3.585825 -25.319382 -23.611966   1.510709  49.744003  -3.042882 -10.958089   1.359980  -5.111816   2.672327  -3.034945  -1.507341  -4.777847   0.245231  -3.294070  -3.205431  14.692933  -3.637917   2.314280  24.281128  -9.882360   7.477118  -6.131398  -2.168103 -30.571586  20.634331 -47.512422 -64.956888  -4.161658 -52.622432   7.801047   8.162634   9.186376 -15.174477  -8.566640  -2.397756  31.607047  22.212283  40.687239  65.396971  -2.148457  54.466420 -13.769793  15.529817   4.913890  -4.755678
  3.141593   3.141593   3.141593  -3.680535 -69.226596  -4.333464 -35.442835  19.969747  13.062319  51.381661   3.547533   6.782422   4.505630   0.789219  -7.907129  -5.704587  -4.536538  -4.012950 -21.717171 -20.595877   2.466383  39.114297  -2.396939 -10.739770   1.152495  -3.471263   2.837256  -1.306834  -0.499424  -4.618894  -1.189967  -3.762040  -1.561804   7.903518  -3.148990   6.485883  25.783196  -9.682372   3.660845  -4.652473  -2.733588 -30.822828  19.151825 -44.021266 -64.708287   0.098588 -54.245601  11.504364  11.936577   7.358770 -13.734561  -8.499364  -6.596306  31.064596  18.454800  41.781375  65.906137  -6.622305  54.049510  -8.419245  16.218808   5.312591  -9.273678
  3.141593   3.141593   3.141593  27.541912 -60.011887  23.421376 -33.585233  26.087539  10.149725  50.175110   4.101982   8.372410   0.450291  -0.188344  -6.447377  -5.002234  -2.168340  -3.267814 -25.319432 -25.316917   3.139656  44.599786 -10.859057 -10.405542   4.128142  -9.782035  -7.021618  -2.598857   0.795224  -4.902838  -0.651757  -2.040731  -2.600697  13.474735  -4.604227   1.930229  22.391453 -14.316882   5.254278  -6.233593  -2.677246 -32.389121  14.083650 -42.784684 -68.377248   1.729094 -54.452551  13.677758  12.552369   5.063584 -13.573629  -9.010053  -4.690557  26.961217  24.964930  42.763967  63.210825  -4.905332  48.551021 -10.483726  12.379688   6.770527  -6.542598
  3.141593   3.141593   3.141593   7.344557 -45.506462   7.904360 -27.885464  16.319065   3.523433  44.806686  -0.432933   9.265725   2.773514  -2.455940  -1.509306  -4.782691  -4.013125  -3.182180 -25.878882 -15.976704  -3.685895  46.444219  -4.995477  -9.893507   6.203024  -6.163570   1.591174  -3.881064  -1.145457  -2.881110   0.704789  -3.152812  -1.518110  11.309176  -1.228889   5.150728  21.504729 -14.767055   0.452473  -7.061310   0.149364 -30.886294  21.048783 -46.883810 -58.318358  -1.757853 -48.132494   5.944582   6.561668   9.217920 -13.929507  -7.147716  -6.790375  29.086730  24.515611  34.775017  63.279020  -1.912536  50.471145 -17.448359   9.799671   6.522280  -8.813855
  3.141593   3.141593   3.141593   0.068770 -29.595718   3.306629 -35.918214  19.228775   2.596157  51.848111   0.309909   6.385156  -3.289709  -0.082535  -6.859143  -4.136166  -3.285210  -3.575145 -29.661015 -23.942484  -6.318430  57.408342  -7.018033 -10.974322   1.497594  -4.923843   6.337739  -1.415563   0.405945  -2.869018   2.050569   1.482979  -0.029260  15.547984   0.977092  -0.316698  17.725952  -1.392807  -3.514060  -5.972796  -1.517666 -31.757217  19.982570 -44.069588 -64.487361  -3.336726 -49.687424   9.104857   9.116621  10.973889 -14.550902  -9.992255  -2.343873  29.143363  20.506401  38.859861  63.891959  -3.186245  56.723867 -11.200821  18.888888   6.217014 -10.703836
